<?xml version="1.0" encoding="utf-8"?>
<!-- Generator: Adobe Illustrator 16.0.0, SVG Export Plug-In . SVG Version: 6.00 Build 0)  -->
<!DOCTYPE svg PUBLIC "-//W3C//DTD SVG 1.1//EN" "http://www.w3.org/Graphics/SVG/1.1/DTD/svg11.dtd">
<svg version="1.1" id="_x32_" xmlns="http://www.w3.org/2000/svg" xmlns:xlink="http://www.w3.org/1999/xlink" x="0px" y="0px"
	 width="1000px" height="1000px" viewBox="0 0 1000 1000" enable-background="new 0 0 1000 1000" xml:space="preserve">
<g>
	<path fill="#666666" d="M254.578,253.472c-53.563,34.737-64.086,143.327-43.865,231.832
		c15.75,68.921,49.234,161.373,105.697,248.434c53.117,81.899,127.223,155.336,183.729,197.825
		c72.563,54.558,175.999,89.232,229.563,54.495c27.086-17.565,67.324-65.562,69.16-74.172c0,0-23.6-36.385-28.775-44.367
		l-79.133-122.013c-5.88-9.065-42.758-0.778-61.492,9.832c-25.269,14.317-48.543,52.736-48.543,52.736
		c-17.328,10.011-31.84,0.037-62.164-13.919c-37.268-17.146-79.17-70.425-112.518-118.683
		c-30.459-50.129-62.019-110.116-62.478-151.137c-0.375-33.378-3.563-50.697,12.644-62.436c0,0,44.569-5.582,67.949-22.813
		c17.326-12.777,39.936-43.068,34.055-52.136L379.276,264.94c-5.179-7.984-28.775-44.367-28.775-44.367
		C341.896,218.738,281.662,235.906,254.578,253.472z"/>
	<path fill="#666666" d="M703.196,344.513c32.203-131.252-44.313-265.472-173.658-304.629l10.921-39.885
		C691.803,45.195,781.295,202.181,743.08,355.435L703.196,344.513z"/>
	<path fill="#666666" d="M616.76,320.845c19.229-83.599-29.16-168.479-110.891-194.522l10.926-39.898
		c103.724,32.101,165.086,139.742,139.863,245.35L616.76,320.845z"/>
	<path fill="#666666" d="M530.207,297.144c6.422-35.885-13.889-71.517-48.039-84.271l10.947-39.977
		c56.102,18.934,89.354,77.272,77.066,135.194L530.207,297.144z"/>
</g>
</svg>
