<?xml version="1.0" encoding="utf-8"?>
<!-- Generator: Adobe Illustrator 22.0.1, SVG Export Plug-In . SVG Version: 6.00 Build 0)  -->
<svg version="1.1" id="_x32_" xmlns="http://www.w3.org/2000/svg" xmlns:xlink="http://www.w3.org/1999/xlink" x="0px" y="0px"
	 viewBox="0 0 1000 1000" style="enable-background:new 0 0 1000 1000;" xml:space="preserve">
<style type="text/css">
	.st0{fill:#FFFFFF;}
</style>
<g>
	<path class="st0" d="M254.6,253.5c-53.6,34.7-64.1,143.3-43.9,231.8c15.8,68.9,49.2,161.4,105.7,248.4
		c53.1,81.9,127.2,155.3,183.7,197.8c72.6,54.6,176,89.2,229.6,54.5c27.1-17.6,67.3-65.6,69.2-74.2c0,0-23.6-36.4-28.8-44.4
		l-79.1-122c-5.9-9.1-42.8-0.8-61.5,9.8c-25.3,14.3-48.5,52.7-48.5,52.7c-17.3,10-31.8,0-62.2-13.9
		c-37.3-17.1-79.2-70.4-112.5-118.7c-30.5-50.1-62-110.1-62.5-151.1c-0.4-33.4-3.6-50.7,12.6-62.4c0,0,44.6-5.6,67.9-22.8
		c17.3-12.8,39.9-43.1,34.1-52.1l-79.1-122c-5.2-8-28.8-44.4-28.8-44.4C341.9,218.7,281.7,235.9,254.6,253.5z"/>
	<path class="st0" d="M703.2,344.5C735.4,213.3,658.9,79,529.5,39.9l11-39.9c151.3,45.2,240.8,202.2,202.6,355.4L703.2,344.5z"/>
	<path class="st0" d="M616.8,320.8c19.2-83.6-29.2-168.5-110.9-194.5l10.9-39.9c103.7,32.1,165.1,139.7,139.9,245.3L616.8,320.8z"/>
	<path class="st0" d="M530.2,297.1c6.4-35.9-13.9-71.5-48-84.3l10.9-40c56.1,18.9,89.4,77.3,77.1,135.2L530.2,297.1z"/>
</g>
</svg>
